0
SECTION
2
HEADER
9
$ACADVER
1
AC1009
9
$INSUNITS
70
4
9
$EXTMIN
10
0
20
0
30
0.0
9
$EXTMAX
10
80
20
60
30
0.0
0
ENDSEC
0
SECTION
2
TABLES
0
TABLE
2
LAYER
70
7
0
LAYER
2
0
70
0
62
7
6
CONTINUOUS
0
LAYER
2
70S-1001-1
70
0
62
7
6
CONTINUOUS
0
LAYER
2
70S-1401
70
0
62
7
6
CONTINUOUS
0
LAYER
2
70S-1101-1
70
0
62
7
6
CONTINUOUS
0
LAYER
2
70S-1501
70
0
62
7
6
CONTINUOUS
0
LAYER
2
70S-1201-1
70
0
62
7
6
CONTINUOUS
0
LAYER
2
70S-1701
70
0
62
7
6
CONTINUOUS
0
ENDTAB
0
ENDSEC
0
SECTION
2
ENTITIES
0
POLYLINE
8
70S-1001-1
66
1
70
1
0
VERTEX
8
70S-1001-1
10
1.3
20
0
30
0.0
0
VERTEX
8
70S-1001-1
10
0
20
0
30
0.0
0
VERTEX
8
70S-1001-1
10
0
20
31.581
30
0.0
0
VERTEX
8
70S-1001-1
10
0.339
20
31.959
30
0.0
0
VERTEX
8
70S-1001-1
10
5.979
20
32
30
0.0
0
VERTEX
8
70S-1001-1
10
5.979
20
30.686
30
0.0
0
VERTEX
8
70S-1001-1
10
2.077
20
30.686
30
0.0
0
VERTEX
8
70S-1001-1
10
1.373
20
30.069
30
0.0
0
VERTEX
8
70S-1001-1
10
1.314
20
25.685
30
0.0
0
VERTEX
8
70S-1001-1
10
2.077
20
24.923
30
0.0
0
VERTEX
8
70S-1001-1
10
14.417
20
24.923
30
0.0
0
VERTEX
8
70S-1001-1
10
14.756
20
25.431
30
0.0
0
VERTEX
8
70S-1001-1
10
14.629
20
28.059
30
0.0
0
VERTEX
8
70S-1001-1
10
15.987
20
29.584
30
0.0
0
VERTEX
8
70S-1001-1
10
16.713
20
28.941
30
0.0
0
VERTEX
8
70S-1001-1
10
16.044
20
27.524
30
0.0
0
VERTEX
8
70S-1001-1
10
16.166
20
25.967
30
0.0
0
VERTEX
8
70S-1001-1
10
17.64
20
24.923
30
0.0
0
VERTEX
8
70S-1001-1
10
19.082
20
25.271
30
0.0
0
VERTEX
8
70S-1001-1
10
19.706
20
25.984
30
0.0
0
VERTEX
8
70S-1001-1
10
19.828
20
27.524
30
0.0
0
VERTEX
8
70S-1001-1
10
19.167
20
29.035
30
0.0
0
VERTEX
8
70S-1001-1
10
19.929
20
29.584
30
0.0
0
VERTEX
8
70S-1001-1
10
21.244
20
27.973
30
0.0
0
VERTEX
8
70S-1001-1
10
21.117
20
25.431
30
0.0
0
VERTEX
8
70S-1001-1
10
21.455
20
24.923
30
0.0
0
VERTEX
8
70S-1001-1
10
48.255
20
24.923
30
0.0
0
VERTEX
8
70S-1001-1
10
48.594
20
25.262
30
0.0
0
VERTEX
8
70S-1001-1
10
48.467
20
27.973
30
0.0
0
VERTEX
8
70S-1001-1
10
49.824
20
29.584
30
0.0
0
VERTEX
8
70S-1001-1
10
50.586
20
28.822
30
0.0
0
VERTEX
8
70S-1001-1
10
49.911
20
27.51
30
0.0
0
VERTEX
8
70S-1001-1
10
50.024
20
25.998
30
0.0
0
VERTEX
8
70S-1001-1
10
51.478
20
24.923
30
0.0
0
VERTEX
8
70S-1001-1
10
52.962
20
25.269
30
0.0
0
VERTEX
8
70S-1001-1
10
53.554
20
25.981
30
0.0
0
VERTEX
8
70S-1001-1
10
53.719
20
27.375
30
0.0
0
VERTEX
8
70S-1001-1
10
53.003
20
28.822
30
0.0
0
VERTEX
8
70S-1001-1
10
53.765
20
29.584
30
0.0
0
VERTEX
8
70S-1001-1
10
54.996
20
28.355
30
0.0
0
VERTEX
8
70S-1001-1
10
54.996
20
25.262
30
0.0
0
VERTEX
8
70S-1001-1
10
55.335
20
24.923
30
0.0
0
VERTEX
8
70S-1001-1
10
67.676
20
24.923
30
0.0
0
VERTEX
8
70S-1001-1
10
68.438
20
25.897
30
0.0
0
VERTEX
8
70S-1001-1
10
68.363
20
30.04
30
0.0
0
VERTEX
8
70S-1001-1
10
67.676
20
30.686
30
0.0
0
VERTEX
8
70S-1001-1
10
63.733
20
30.686
30
0.0
0
VERTEX
8
70S-1001-1
10
63.733
20
32
30
0.0
0
VERTEX
8
70S-1001-1
10
69.329
20
32
30
0.0
0
VERTEX
8
70S-1001-1
10
69.709
20
31.662
30
0.0
0
VERTEX
8
70S-1001-1
10
69.719
20
0
30
0.0
0
VERTEX
8
70S-1001-1
10
68.419
20
0
30
0.0
0
VERTEX
8
70S-1001-1
10
68.419
20
23.36
30
0.0
0
VERTEX
8
70S-1001-1
10
36.51
20
23.608
30
0.0
0
VERTEX
8
70S-1001-1
10
35.65
20
23.236
30
0.0
0
VERTEX
8
70S-1001-1
10
35.65
20
0
30
0.0
0
VERTEX
8
70S-1001-1
10
34.35
20
0
30
0.0
0
VERTEX
8
70S-1001-1
10
34.35
20
23.351
30
0.0
0
VERTEX
8
70S-1001-1
10
2.292
20
23.608
30
0.0
0
VERTEX
8
70S-1001-1
10
1.3
20
23.253
30
0.0
0
SEQEND
8
70S-1001-1
0
POLYLINE
8
70S-1401
66
1
70
1
0
VERTEX
8
70S-1401
10
98.127
20
0.511
30
0.0
0
VERTEX
8
70S-1401
10
98.127
20
21.489
30
0.0
0
VERTEX
8
70S-1401
10
95.119
20
22.463
30
0.0
0
VERTEX
8
70S-1401
10
95.119
20
24.456
30
0.0
0
VERTEX
8
70S-1401
10
95.643
20
24.974
30
0.0
0
VERTEX
8
70S-1401
10
96.347
20
23.056
30
0.0
0
VERTEX
8
70S-1401
10
98.042
20
23.183
30
0.0
0
VERTEX
8
70S-1401
10
98.127
20
30.472
30
0.0
0
VERTEX
8
70S-1401
10
97.619
20
30.982
30
0.0
0
VERTEX
8
70S-1401
10
96.347
20
30.898
30
0.0
0
VERTEX
8
70S-1401
10
96.049
20
29.181
30
0.0
0
VERTEX
8
70S-1401
10
95.213
20
29.181
30
0.0
0
VERTEX
8
70S-1401
10
95.33
20
31.871
30
0.0
0
VERTEX
8
70S-1401
10
99.399
20
31.618
30
0.0
0
VERTEX
8
70S-1401
10
99.738
20
15.3
30
0.0
0
VERTEX
8
70S-1401
10
105.803
20
15.3
30
0.0
0
VERTEX
8
70S-1401
10
105.717
20
18.224
30
0.0
0
VERTEX
8
70S-1401
10
107.196
20
19.947
30
0.0
0
VERTEX
8
70S-1401
10
107.837
20
19.412
30
0.0
0
VERTEX
8
70S-1401
10
107.231
20
16.569
30
0.0
0
VERTEX
8
70S-1401
10
108.415
20
15.405
30
0.0
0
VERTEX
8
70S-1401
10
109.702
20
15.384
30
0.0
0
VERTEX
8
70S-1401
10
110.87
20
16.445
30
0.0
0
VERTEX
8
70S-1401
10
111.058
20
17.459
30
0.0
0
VERTEX
8
70S-1401
10
110.298
20
19.412
30
0.0
0
VERTEX
8
70S-1401
10
110.954
20
19.947
30
0.0
0
VERTEX
8
70S-1401
10
112.459
20
18.224
30
0.0
0
VERTEX
8
70S-1401
10
112.332
20
15.3
30
0.0
0
VERTEX
8
70S-1401
10
118.651
20
15.47
30
0.0
0
VERTEX
8
70S-1401
10
118.777
20
31.618
30
0.0
0
VERTEX
8
70S-1401
10
122.808
20
31.871
30
0.0
0
VERTEX
8
70S-1401
10
122.812
20
29.049
30
0.0
0
VERTEX
8
70S-1401
10
122.062
20
29.22
30
0.0
0
VERTEX
8
70S-1401
10
121.831
20
30.898
30
0.0
0
VERTEX
8
70S-1401
10
120.05
20
30.602
30
0.0
0
VERTEX
8
70S-1401
10
120.05
20
23.309
30
0.0
0
VERTEX
8
70S-1401
10
121.831
20
23.056
30
0.0
0
VERTEX
8
70S-1401
10
122.531
20
24.974
30
0.0
0
VERTEX
8
70S-1401
10
123.019
20
24.624
30
0.0
0
VERTEX
8
70S-1401
10
123.019
20
22.336
30
0.0
0
VERTEX
8
70S-1401
10
120.05
20
21.616
30
0.0
0
VERTEX
8
70S-1401
10
119.965
20
0.212
30
0.0
0
VERTEX
8
70S-1401
10
114.071
20
0.253
30
0.0
0
VERTEX
8
70S-1401
10
114.155
20
3.011
30
0.0
0
VERTEX
8
70S-1401
10
115.047
20
3.011
30
0.0
0
VERTEX
8
70S-1401
10
115.047
20
1.23
30
0.0
0
VERTEX
8
70S-1401
10
118.693
20
1.527
30
0.0
0
VERTEX
8
70S-1401
10
118.736
20
13.477
30
0.0
0
VERTEX
8
70S-1401
10
118.227
20
13.986
30
0.0
0
VERTEX
8
70S-1401
10
99.611
20
13.901
30
0.0
0
VERTEX
8
70S-1401
10
99.442
20
1.527
30
0.0
0
VERTEX
8
70S-1401
10
103.088
20
1.23
30
0.0
0
VERTEX
8
70S-1401
10
103.088
20
3.011
30
0.0
0
VERTEX
8
70S-1401
10
103.98
20
3.011
30
0.0
0
VERTEX
8
70S-1401
10
104.107
20
0.342
30
0.0
0
VERTEX
8
70S-1401
10
98.127
20
0.342
30
0.0
0
SEQEND
8
70S-1401
0
POLYLINE
8
70S-1101-1
66
1
70
1
0
VERTEX
8
70S-1101-1
10
148.419
20
2.076
30
0.0
0
VERTEX
8
70S-1101-1
10
148.634
20
9.916
30
0.0
0
VERTEX
8
70S-1101-1
10
165.434
20
11.02
30
0.0
0
VERTEX
8
70S-1101-1
10
165.72
20
19.07
30
0.0
0
VERTEX
8
70S-1101-1
10
164.575
20
20.089
30
0.0
0
VERTEX
8
70S-1101-1
10
164.363
20
21.316
30
0.0
0
VERTEX
8
70S-1101-1
10
165.763
20
22.886
30
0.0
0
VERTEX
8
70S-1101-1
10
167.247
20
22.759
30
0.0
0
VERTEX
8
70S-1101-1
10
168.265
20
21.57
30
0.0
0
VERTEX
8
70S-1101-1
10
168.139
20
20.089
30
0.0
0
VERTEX
8
70S-1101-1
10
166.994
20
19.07
30
0.0
0
VERTEX
8
70S-1101-1
10
166.994
20
11.823
30
0.0
0
VERTEX
8
70S-1101-1
10
167.797
20
10.85
30
0.0
0
VERTEX
8
70S-1101-1
10
198.839
20
12.162
30
0.0
0
VERTEX
8
70S-1101-1
10
199.558
20
12.927
30
0.0
0
VERTEX
8
70S-1101-1
10
199.558
20
19.07
30
0.0
0
VERTEX
8
70S-1101-1
10
198.413
20
20.089
30
0.0
0
VERTEX
8
70S-1101-1
10
198.243
20
21.316
30
0.0
0
VERTEX
8
70S-1101-1
10
198.828
20
22.414
30
0.0
0
VERTEX
8
70S-1101-1
10
200.236
20
22.97
30
0.0
0
VERTEX
8
70S-1101-1
10
201.635
20
22.378
30
0.0
0
VERTEX
8
70S-1101-1
10
202.23
20
20.978
30
0.0
0
VERTEX
8
70S-1101-1
10
201.858
20
19.826
30
0.0
0
VERTEX
8
70S-1101-1
10
200.873
20
19.07
30
0.0
0
VERTEX
8
70S-1101-1
10
201.163
20
12.544
30
0.0
0
VERTEX
8
70S-1101-1
10
216.307
20
12.97
30
0.0
0
VERTEX
8
70S-1101-1
10
216.859
20
13.859
30
0.0
0
VERTEX
8
70S-1101-1
10
216.859
20
28.648
30
0.0
0
VERTEX
8
70S-1101-1
10
215.502
20
28.733
30
0.0
0
VERTEX
8
70S-1101-1
10
215.163
20
29.498
30
0.0
0
VERTEX
8
70S-1101-1
10
215.798
20
29.964
30
0.0
0
VERTEX
8
70S-1101-1
10
218.13
20
29.625
30
0.0
0
VERTEX
8
70S-1101-1
10
217.791
20
0
30
0.0
0
VERTEX
8
70S-1101-1
10
212.195
20
0
30
0.0
0
VERTEX
8
70S-1101-1
10
212.195
20
1.23
30
0.0
0
VERTEX
8
70S-1101-1
10
216.094
20
1.272
30
0.0
0
VERTEX
8
70S-1101-1
10
216.816
20
2.034
30
0.0
0
VERTEX
8
70S-1101-1
10
216.859
20
10.554
30
0.0
0
VERTEX
8
70S-1101-1
10
216.052
20
11.57
30
0.0
0
VERTEX
8
70S-1101-1
10
203.374
20
11.02
30
0.0
0
VERTEX
8
70S-1101-1
10
203.543
20
7.797
30
0.0
0
VERTEX
8
70S-1101-1
10
202.086
20
6.26
30
0.0
0
VERTEX
8
70S-1101-1
10
201.424
20
6.992
30
0.0
0
VERTEX
8
70S-1101-1
10
202.134
20
8.307
30
0.0
0
VERTEX
8
70S-1101-1
10
201.99
20
9.817
30
0.0
0
VERTEX
8
70S-1101-1
10
200.535
20
10.892
30
0.0
0
VERTEX
8
70S-1101-1
10
199.155
20
10.594
30
0.0
0
VERTEX
8
70S-1101-1
10
198.449
20
9.831
30
0.0
0
VERTEX
8
70S-1101-1
10
198.302
20
8.36
30
0.0
0
VERTEX
8
70S-1101-1
10
199.008
20
6.865
30
0.0
0
VERTEX
8
70S-1101-1
10
198.366
20
6.255
30
0.0
0
VERTEX
8
70S-1101-1
10
197.013
20
7.5
30
0.0
0
VERTEX
8
70S-1101-1
10
196.843
20
10.765
30
0.0
0
VERTEX
8
70S-1101-1
10
169.536
20
9.577
30
0.0
0
VERTEX
8
70S-1101-1
10
169.708
20
6.442
30
0.0
0
VERTEX
8
70S-1101-1
10
168.188
20
4.806
30
0.0
0
VERTEX
8
70S-1101-1
10
167.572
20
5.447
30
0.0
0
VERTEX
8
70S-1101-1
10
168.249
20
6.849
30
0.0
0
VERTEX
8
70S-1101-1
10
168.139
20
8.392
30
0.0
0
VERTEX
8
70S-1101-1
10
166.655
20
9.451
30
0.0
0
VERTEX
8
70S-1101-1
10
164.585
20
8.359
30
0.0
0
VERTEX
8
70S-1101-1
10
164.453
20
6.86
30
0.0
0
VERTEX
8
70S-1101-1
10
165.128
20
5.297
30
0.0
0
VERTEX
8
70S-1101-1
10
164.516
20
4.813
30
0.0
0
VERTEX
8
70S-1101-1
10
163.601
20
5.297
30
0.0
0
VERTEX
8
70S-1101-1
10
162.964
20
6.569
30
0.0
0
VERTEX
8
70S-1101-1
10
162.879
20
9.324
30
0.0
0
VERTEX
8
70S-1101-1
10
150.457
20
8.772
30
0.0
0
VERTEX
8
70S-1101-1
10
149.735
20
8.009
30
0.0
0
VERTEX
8
70S-1101-1
10
149.819
20
1.864
30
0.0
0
VERTEX
8
70S-1101-1
10
150.498
20
1.314
30
0.0
0
VERTEX
8
70S-1101-1
10
154.398
20
1.314
30
0.0
0
VERTEX
8
70S-1101-1
10
154.398
20
0
30
0.0
0
VERTEX
8
70S-1101-1
10
148.761
20
0
30
0.0
0
VERTEX
8
70S-1101-1
10
148.419
20
2.034
30
0.0
0
SEQEND
8
70S-1101-1
0
POLYLINE
8
70S-1501
66
1
70
1
0
VERTEX
8
70S-1501
10
243.53
20
5.001
30
0.0
0
VERTEX
8
70S-1501
10
243.53
20
56.114
30
0.0
0
VERTEX
8
70S-1501
10
249.509
20
56.114
30
0.0
0
VERTEX
8
70S-1501
10
249.509
20
53.105
30
0.0
0
VERTEX
8
70S-1501
10
248.534
20
53.105
30
0.0
0
VERTEX
8
70S-1501
10
248.025
20
54.84
30
0.0
0
VERTEX
8
70S-1501
10
244.887
20
54.587
30
0.0
0
VERTEX
8
70S-1501
10
244.803
20
46.917
30
0.0
0
VERTEX
8
70S-1501
10
245.31
20
46.408
30
0.0
0
VERTEX
8
70S-1501
10
263.8
20
46.451
30
0.0
0
VERTEX
8
70S-1501
10
264.138
20
54.46
30
0.0
0
VERTEX
8
70S-1501
10
260.788
20
54.799
30
0.0
0
VERTEX
8
70S-1501
10
260.449
20
53.105
30
0.0
0
VERTEX
8
70S-1501
10
259.474
20
53.105
30
0.0
0
VERTEX
8
70S-1501
10
259.474
20
56.114
30
0.0
0
VERTEX
8
70S-1501
10
265.453
20
56.114
30
0.0
0
VERTEX
8
70S-1501
10
265.453
20
0
30
0.0
0
VERTEX
8
70S-1501
10
264.138
20
0
30
0.0
0
VERTEX
8
70S-1501
10
264.138
20
5.001
30
0.0
0
VERTEX
8
70S-1501
10
262.189
20
5.001
30
0.0
0
VERTEX
8
70S-1501
10
262.189
20
5.975
30
0.0
0
VERTEX
8
70S-1501
10
264.138
20
5.975
30
0.0
0
VERTEX
8
70S-1501
10
264.138
20
44.797
30
0.0
0
VERTEX
8
70S-1501
10
263.63
20
45.136
30
0.0
0
VERTEX
8
70S-1501
10
257.735
20
45.093
30
0.0
0
VERTEX
8
70S-1501
10
257.947
20
42.551
30
0.0
0
VERTEX
8
70S-1501
10
256.728
20
40.527
30
0.0
0
VERTEX
8
70S-1501
10
255.785
20
40.855
30
0.0
0
VERTEX
8
70S-1501
10
256.46
20
43.17
30
0.0
0
VERTEX
8
70S-1501
10
255.106
20
45.01
30
0.0
0
VERTEX
8
70S-1501
10
253.783
20
44.978
30
0.0
0
VERTEX
8
70S-1501
10
252.696
20
43.981
30
0.0
0
VERTEX
8
70S-1501
10
252.58
20
42.577
30
0.0
0
VERTEX
8
70S-1501
10
253.282
20
41.194
30
0.0
0
VERTEX
8
70S-1501
10
252.621
20
40.496
30
0.0
0
VERTEX
8
70S-1501
10
251.12
20
42.169
30
0.0
0
VERTEX
8
70S-1501
10
251.205
20
45.093
30
0.0
0
VERTEX
8
70S-1501
10
244.887
20
44.924
30
0.0
0
VERTEX
8
70S-1501
10
244.803
20
5.975
30
0.0
0
VERTEX
8
70S-1501
10
246.837
20
5.975
30
0.0
0
VERTEX
8
70S-1501
10
246.837
20
5.001
30
0.0
0
VERTEX
8
70S-1501
10
244.803
20
5.001
30
0.0
0
VERTEX
8
70S-1501
10
244.803
20
0
30
0.0
0
VERTEX
8
70S-1501
10
243.53
20
0
30
0.0
0
SEQEND
8
70S-1501
0
POLYLINE
8
70S-1201-1
66
1
70
1
0
VERTEX
8
70S-1201-1
10
290.894
20
3.307
30
0.0
0
VERTEX
8
70S-1201-1
10
291.193
20
24.963
30
0.0
0
VERTEX
8
70S-1201-1
10
296.832
20
24.963
30
0.0
0
VERTEX
8
70S-1201-1
10
296.832
20
23.693
30
0.0
0
VERTEX
8
70S-1201-1
10
293.143
20
23.693
30
0.0
0
VERTEX
8
70S-1201-1
10
292.168
20
22.928
30
0.0
0
VERTEX
8
70S-1201-1
10
292.168
20
5.595
30
0.0
0
VERTEX
8
70S-1201-1
10
293.143
20
4.791
30
0.0
0
VERTEX
8
70S-1201-1
10
323.164
20
4.834
30
0.0
0
VERTEX
8
70S-1201-1
10
323.929
20
5.595
30
0.0
0
VERTEX
8
70S-1201-1
10
323.97
20
13.054
30
0.0
0
VERTEX
8
70S-1201-1
10
326.94
20
13.393
30
0.0
0
VERTEX
8
70S-1201-1
10
327.277
20
16.784
30
0.0
0
VERTEX
8
70S-1201-1
10
361.497
20
16.827
30
0.0
0
VERTEX
8
70S-1201-1
10
362.303
20
17.8
30
0.0
0
VERTEX
8
70S-1201-1
10
362.176
20
23.14
30
0.0
0
VERTEX
8
70S-1201-1
10
361.285
20
23.693
30
0.0
0
VERTEX
8
70S-1201-1
10
357.597
20
23.693
30
0.0
0
VERTEX
8
70S-1201-1
10
357.597
20
24.963
30
0.0
0
VERTEX
8
70S-1201-1
10
363.573
20
24.667
30
0.0
0
VERTEX
8
70S-1201-1
10
363.573
20
0
30
0.0
0
VERTEX
8
70S-1201-1
10
362.303
20
0
30
0.0
0
VERTEX
8
70S-1201-1
10
362.303
20
14.496
30
0.0
0
VERTEX
8
70S-1201-1
10
361.285
20
15.513
30
0.0
0
VERTEX
8
70S-1201-1
10
328.762
20
15.385
30
0.0
0
VERTEX
8
70S-1201-1
10
328.212
20
14.496
30
0.0
0
VERTEX
8
70S-1201-1
10
328.212
20
10.469
30
0.0
0
VERTEX
8
70S-1201-1
10
327.236
20
10.469
30
0.0
0
VERTEX
8
70S-1201-1
10
327.236
20
12.123
30
0.0
0
VERTEX
8
70S-1201-1
10
325.243
20
12.123
30
0.0
0
VERTEX
8
70S-1201-1
10
325.243
20
4.791
30
0.0
0
VERTEX
8
70S-1201-1
10
327.236
20
4.791
30
0.0
0
VERTEX
8
70S-1201-1
10
327.236
20
6.485
30
0.0
0
VERTEX
8
70S-1201-1
10
328.212
20
6.485
30
0.0
0
VERTEX
8
70S-1201-1
10
328.212
20
3.857
30
0.0
0
VERTEX
8
70S-1201-1
10
327.702
20
3.518
30
0.0
0
VERTEX
8
70S-1201-1
10
292.932
20
3.518
30
0.0
0
VERTEX
8
70S-1201-1
10
292.168
20
2.756
30
0.0
0
VERTEX
8
70S-1201-1
10
292.168
20
0
30
0.0
0
VERTEX
8
70S-1201-1
10
290.894
20
0
30
0.0
0
VERTEX
8
70S-1201-1
10
290.894
20
3.138
30
0.0
0
SEQEND
8
70S-1201-1
0
POLYLINE
8
70S-1701
66
1
70
1
0
VERTEX
8
70S-1701
10
389.952
20
2.077
30
0.0
0
VERTEX
8
70S-1701
10
389.952
20
7.884
30
0.0
0
VERTEX
8
70S-1701
10
392.451
20
8.011
30
0.0
0
VERTEX
8
70S-1701
10
392.92
20
7.884
30
0.0
0
VERTEX
8
70S-1701
10
392.92
20
6.696
30
0.0
0
VERTEX
8
70S-1701
10
391.224
20
6.696
30
0.0
0
VERTEX
8
70S-1701
10
391.605
20
1.527
30
0.0
0
VERTEX
8
70S-1701
10
398.854
20
1.315
30
0.0
0
VERTEX
8
70S-1701
10
399.522
20
1.939
30
0.0
0
VERTEX
8
70S-1701
10
399.619
20
23.693
30
0.0
0
VERTEX
8
70S-1701
10
398.854
20
24.667
30
0.0
0
VERTEX
8
70S-1701
10
391.773
20
24.582
30
0.0
0
VERTEX
8
70S-1701
10
391.224
20
23.693
30
0.0
0
VERTEX
8
70S-1701
10
391.224
20
19.286
30
0.0
0
VERTEX
8
70S-1701
10
392.92
20
19.286
30
0.0
0
VERTEX
8
70S-1701
10
392.92
20
18.096
30
0.0
0
VERTEX
8
70S-1701
10
390.162
20
18.012
30
0.0
0
VERTEX
8
70S-1701
10
389.952
20
25.006
30
0.0
0
VERTEX
8
70S-1701
10
388.932
20
25.006
30
0.0
0
VERTEX
8
70S-1701
10
388.932
20
25.982
30
0.0
0
VERTEX
8
70S-1701
10
418.827
20
25.982
30
0.0
0
VERTEX
8
70S-1701
10
418.827
20
0
30
0.0
0
VERTEX
8
70S-1701
10
388.932
20
0
30
0.0
0
VERTEX
8
70S-1701
10
388.932
20
1.019
30
0.0
0
VERTEX
8
70S-1701
10
389.952
20
1.019
30
0.0
0
VERTEX
8
70S-1701
10
389.952
20
1.864
30
0.0
0
SEQEND
8
70S-1701
0
ENDSEC
0
EOF
